<?xml version="1.0" encoding="UTF-8" standalone="no"?><!DOCTYPE svg PUBLIC "-//W3C//DTD SVG 1.1//EN" "http://www.w3.org/Graphics/SVG/1.1/DTD/svg11.dtd"><svg width="100%" height="100%" viewBox="0 0 671 96" version="1.1" xmlns="http://www.w3.org/2000/svg" xmlns:xlink="http://www.w3.org/1999/xlink" xml:space="preserve" style="fill-rule:evenodd;clip-rule:evenodd;stroke-linejoin:round;stroke-miterlimit:1.41421;"><g><g transform="matrix(0.0897612,0,0,0.0980502,315.473,-93.2677)"><path d="M1713.69,1678.55c-39.62,0 -72.472,-12.216 -98.555,-36.649c-26.084,-24.432 -39.456,-58.44 -40.116,-102.022l0,-271.4l-85.184,0l0,-83.203l85.184,0l0,-148.577l91.127,0l0,148.577l118.861,0l0,83.203l-118.861,0l0,241.685c0,32.356 6.273,54.313 18.82,65.869c12.546,11.555 26.743,17.333 42.591,17.333c7.264,0 14.363,-0.825 21.296,-2.476c6.934,-1.651 13.372,-3.797 19.315,-6.438l28.725,81.222c-23.772,8.584 -51.506,12.876 -83.203,12.876Zm-568.553,-493.274l87.165,0l0,79.241l3.962,0c27.074,-62.072 82.873,-93.108 167.397,-93.108l18.819,1.981l0,95.089l-40.611,-3.962c-42.261,0 -77.094,13.042 -104.499,39.125c-27.404,26.084 -41.106,59.266 -41.106,99.546l0,267.438l-91.127,0l0,-485.35Z" style="fill:none;"/><text x="584.512px" y="1670.63px" style="font-family:'ProductSans-Regular', 'Product Sans', sans-serif;font-size:990.511px;fill:none;">a<tspan x="1821.66px 2039.57px 2495.21px 3000.37px 3532.27px " y="1670.63px 1670.63px 1670.63px 1670.63px 1670.63px ">isans</tspan></text><path d="M1713.69,1678.55c-39.62,0 -72.472,-12.216 -98.555,-36.649c-26.084,-24.432 -39.456,-58.44 -40.116,-102.022l0,-271.4l-85.184,0l0,-83.203l85.184,0l0,-148.577l91.127,0l0,148.577l118.861,0l0,83.203l-118.861,0l0,241.685c0,32.356 6.273,54.313 18.82,65.869c12.546,11.555 26.743,17.333 42.591,17.333c7.264,0 14.363,-0.825 21.296,-2.476c6.934,-1.651 13.372,-3.797 19.315,-6.438l28.725,81.222c-23.772,8.584 -51.506,12.876 -83.203,12.876Zm-568.553,-493.274l87.165,0l0,79.241l3.962,0c27.074,-62.072 82.873,-93.108 167.397,-93.108l18.819,1.981l0,95.089l-40.611,-3.962c-42.261,0 -77.094,13.042 -104.499,39.125c-27.404,26.084 -41.106,59.266 -41.106,99.546l0,267.438l-91.127,0l0,-485.35Z" style="fill:#595959;"/><text x="584.512px" y="1670.63px" style="font-family:'ProductSans-Regular', 'Product Sans', sans-serif;font-size:990.511px;fill:#595959;">a<tspan x="1821.66px 2039.57px 2495.21px 3000.37px 3532.27px " y="1670.63px 1670.63px 1670.63px 1670.63px 1670.63px ">isans</tspan></text></g><g transform="matrix(0.0897612,0,0,0.0980502,147.278,-93.2677)"><text x="584.512px" y="1670.63px" style="font-family:'ProductSans-Regular', 'Product Sans', sans-serif;font-size:990.511px;fill:none;">w<tspan x="1321.45px " y="1670.63px ">e</tspan>b</text><text x="584.512px" y="1670.63px" style="font-family:'ProductSans-Regular', 'Product Sans', sans-serif;font-size:990.511px;fill:#595959;stroke:#595959;stroke-width:21.28px;">w<tspan x="1321.45px " y="1670.63px ">e</tspan>b</text></g></g><path d="M67.291,70.291c3.277,6.522 6.561,13.041 9.852,19.556c0.178,0.343 0.37,0.679 0.581,1.003c0.485,0.742 1.059,1.426 1.708,2.03c1.309,1.22 2.914,2.111 4.643,2.574c1.3,0.349 2.664,0.456 4.003,0.314c1.007,-0.107 2,-0.354 2.94,-0.732c1.132,-0.456 2.187,-1.102 3.108,-1.903c0.716,-0.623 1.351,-1.339 1.883,-2.125c0.253,-0.373 0.48,-0.761 0.687,-1.161c12.394,-24.503 24.662,-49.07 36.84,-73.681c0.193,-0.398 0.365,-0.805 0.511,-1.223c0.295,-0.85 0.486,-1.737 0.566,-2.633c0.094,-1.062 0.033,-2.137 -0.181,-3.181c-0.199,-0.97 -0.53,-1.912 -0.981,-2.793c-0.575,-1.125 -1.345,-2.148 -2.267,-3.012c-1.031,-0.966 -2.249,-1.73 -3.569,-2.237c-0.813,-0.313 -1.663,-0.528 -2.527,-0.64c-0.439,-0.057 -0.88,-0.085 -1.323,-0.09c-24.535,-0.102 -49.071,-0.102 -73.606,-0.001c-13.09,0 -26.179,-0.054 -39.269,0.001c-0.442,0.005 -0.883,0.033 -1.322,0.09c-0.864,0.112 -1.715,0.328 -2.528,0.64c-1.022,0.393 -1.984,0.939 -2.845,1.616c-0.917,0.721 -1.718,1.589 -2.364,2.561c-0.712,1.074 -1.234,2.273 -1.532,3.527c-0.274,1.149 -0.361,2.342 -0.256,3.519c0.082,0.926 0.283,1.84 0.595,2.716c0.139,0.389 0.301,0.769 0.482,1.14c12.178,24.611 24.446,49.178 36.84,73.681c0.192,0.372 0.402,0.733 0.633,1.082c0.474,0.712 1.031,1.369 1.657,1.952c1.239,1.155 2.744,2.015 4.368,2.496c1.382,0.41 2.843,0.543 4.276,0.391c1.008,-0.107 2.001,-0.354 2.941,-0.732c1.132,-0.456 2.187,-1.102 3.108,-1.903c0.74,-0.644 1.393,-1.387 1.936,-2.204c0.232,-0.349 0.442,-0.71 0.634,-1.082l0.039,-0.079l9.739,-19.477Zm88.376,-69.951c0.314,0.005 0.629,0.019 0.943,0.047c0.653,0.058 1.302,0.172 1.937,0.339c1.053,0.277 2.067,0.702 3.005,1.259c1.024,0.608 1.954,1.372 2.75,2.259c0.485,0.54 0.919,1.125 1.296,1.745c0.182,0.299 0.349,0.607 0.505,0.92c11.656,23.95 23.208,47.951 34.661,71.999c0.199,0.427 0.376,0.864 0.525,1.312c0.312,0.94 0.506,1.919 0.574,2.907c0.081,1.165 -0.011,2.341 -0.274,3.478c-0.273,1.183 -0.729,2.323 -1.348,3.367c-0.59,0.995 -1.326,1.901 -2.179,2.681c-1.087,0.996 -2.361,1.783 -3.737,2.309c-0.895,0.343 -1.832,0.575 -2.783,0.69c-0.436,0.052 -0.874,0.079 -1.313,0.084c-23.112,0.097 -46.224,0.097 -69.336,0c-0.439,-0.005 -0.877,-0.032 -1.313,-0.084c-0.951,-0.115 -1.888,-0.347 -2.783,-0.69c-1.231,-0.471 -2.382,-1.151 -3.39,-2.003c-1,-0.846 -1.857,-1.859 -2.525,-2.987c-0.619,-1.044 -1.076,-2.184 -1.349,-3.367c-0.262,-1.137 -0.355,-2.313 -0.274,-3.478c0.069,-0.988 0.262,-1.967 0.574,-2.907c0.149,-0.448 0.326,-0.885 0.526,-1.312c11.452,-24.048 23.004,-48.049 34.66,-71.999c0.172,-0.345 0.357,-0.682 0.56,-1.01c0.364,-0.586 0.78,-1.141 1.241,-1.655c0.796,-0.887 1.727,-1.651 2.751,-2.259c0.937,-0.557 1.951,-0.982 3.005,-1.259c0.634,-0.167 1.283,-0.281 1.937,-0.339c0.313,-0.028 0.628,-0.042 0.943,-0.047c0.105,0 0.105,0 0.211,0Zm-0.135,8.531c-0.269,0.004 -0.536,0.038 -0.796,0.107c-0.601,0.158 -1.152,0.492 -1.572,0.951c-0.2,0.22 -0.368,0.467 -0.503,0.732c-11.872,23.819 -23.57,47.734 -34.633,71.942c-0.154,0.345 -0.25,0.714 -0.279,1.091c-0.029,0.373 0.006,0.751 0.105,1.112c0.179,0.658 0.567,1.252 1.098,1.68c0.244,0.197 0.517,0.358 0.808,0.478c0.365,0.149 0.755,0.229 1.149,0.24c23.097,0.461 46.208,0.461 69.305,0c0.394,-0.011 0.783,-0.091 1.149,-0.24c0.306,-0.126 0.593,-0.299 0.848,-0.511c0.463,-0.385 0.815,-0.901 1.006,-1.474c0.142,-0.429 0.194,-0.886 0.152,-1.335c-0.035,-0.378 -0.137,-0.746 -0.297,-1.089c-11.441,-24.022 -22.56,-48.208 -34.624,-71.921c-0.133,-0.255 -0.296,-0.493 -0.49,-0.705c-0.401,-0.438 -0.921,-0.763 -1.49,-0.929c-0.248,-0.072 -0.503,-0.113 -0.76,-0.126c-0.059,-0.002 -0.118,-0.003 -0.176,-0.003Zm-105.387,-0.19c24.508,-0.102 49.015,0 73.523,0c0.11,0.001 0.22,0.006 0.329,0.019c0.23,0.028 0.456,0.086 0.67,0.173c0.253,0.102 0.489,0.242 0.699,0.415c0.389,0.321 0.681,0.752 0.836,1.23c0.11,0.339 0.15,0.699 0.119,1.053c-0.029,0.324 -0.119,0.64 -0.26,0.932c-12.165,24.583 -23.998,49.34 -36.8,73.597c-0.16,0.297 -0.374,0.564 -0.633,0.781c-0.226,0.191 -0.484,0.343 -0.761,0.449c-0.214,0.081 -0.439,0.135 -0.667,0.16c-0.293,0.031 -0.592,0.013 -0.879,-0.054c-0.452,-0.104 -0.873,-0.329 -1.212,-0.645c-0.226,-0.21 -0.412,-0.459 -0.553,-0.733c-4.442,-8.793 -8.858,-17.599 -13.262,-26.411c-0.08,-0.255 -0.124,-0.332 -0.243,-0.599c-7.753,-15.505 -15.506,-31.011 -23.259,-46.517c-0.014,-0.029 -0.028,-0.058 -0.042,-0.087c-0.024,-0.053 -0.047,-0.107 -0.067,-0.162l-0.003,-0.006l0,0c-0.092,-0.246 -0.149,-0.504 -0.167,-0.767l-0.002,-0.036l0,-0.012l-0.001,-0.026l-0.001,-0.024l-0.001,-0.022l0,-0.029l0,-0.018l0,-0.033l0,-0.014l0.001,-0.037l0,-0.011l0.002,-0.041l0.001,-0.007l0.002,-0.045l0,-0.004l0.004,-0.048l0,-0.001c0.011,-0.117 0.029,-0.233 0.054,-0.348l0.002,-0.006l0.007,-0.029l0.006,-0.024l0.001,-0.006c0.073,-0.288 0.194,-0.562 0.356,-0.81l0.002,-0.002l0.024,-0.037l0.004,-0.005l0.023,-0.033l0.006,-0.009l0.021,-0.029l0.009,-0.012l0.019,-0.025l0.012,-0.015l0.016,-0.021l0.015,-0.019l0.014,-0.017l0.017,-0.021l0.012,-0.014l0.021,-0.024l0.009,-0.011l0.023,-0.026l0.007,-0.007l0.026,-0.029l0.004,-0.004l0.03,-0.032l0,0c0.034,-0.035 0.069,-0.069 0.104,-0.101l0.047,-0.043c0.076,-0.066 0.155,-0.128 0.237,-0.185c0.181,-0.126 0.378,-0.229 0.584,-0.307c0.292,-0.109 0.6,-0.165 0.911,-0.169l0.004,0Zm-39.157,0l28.521,0l-0.027,0.11l-0.005,0.021c-0.089,0.376 -0.158,0.757 -0.206,1.141c-0.023,0.181 -0.042,0.362 -0.056,0.544c-0.025,0.329 -0.035,0.66 -0.031,0.991l0.002,0.091l0,0.023l0.001,0.017l0.001,0.032l0.001,0.036l0.001,0.027l0.001,0.035l0.001,0.032l0.001,0.014l0.001,0.024c0.008,0.193 0.022,0.385 0.04,0.577l0.005,0.043l0,0.004l0.002,0.022l0.01,0.094l0.008,0.067l0.004,0.032l0.002,0.017l0.006,0.046l0.004,0.034l0.002,0.011l0.009,0.066l0.006,0.051l0.007,0.044l0.008,0.053l0.005,0.032l0.005,0.032l0.003,0.023c0.007,0.044 0.015,0.088 0.022,0.132l0.001,0.006l0.004,0.019l0.013,0.076l0.009,0.049l0.003,0.017l0.003,0.011c0.019,0.102 0.039,0.203 0.061,0.303l0.002,0.01c0.018,0.082 0.037,0.164 0.057,0.246l0.018,0.07c0.013,0.051 0.026,0.103 0.04,0.155l0.021,0.078l0.023,0.083c0.014,0.048 0.028,0.097 0.042,0.146l0.003,0.009l0.004,0.012l0.015,0.05l0.029,0.095c0.015,0.046 0.029,0.092 0.045,0.138l0.005,0.016l0.005,0.016c0.015,0.045 0.031,0.09 0.046,0.135l0.001,0.004l0.004,0.009l0.028,0.082l0.025,0.068c0.051,0.141 0.106,0.28 0.162,0.418c0.09,0.217 0.187,0.43 0.289,0.641l0.002,0.004l0.036,0.073l0.003,0.005c7.392,14.937 14.821,29.857 22.288,44.757c-4.182,8.368 -8.182,16.829 -12.551,25.1c-0.157,0.291 -0.365,0.552 -0.616,0.767c-0.224,0.192 -0.481,0.346 -0.756,0.454c-0.221,0.087 -0.453,0.144 -0.689,0.169c-0.301,0.031 -0.608,0.012 -0.902,-0.059c-0.428,-0.103 -0.829,-0.314 -1.155,-0.609c-0.229,-0.206 -0.419,-0.451 -0.565,-0.722c-12.806,-24.271 -25.045,-48.846 -36.818,-73.635c-0.134,-0.288 -0.218,-0.597 -0.244,-0.914c-0.021,-0.257 -0.004,-0.517 0.05,-0.769c0.049,-0.227 0.127,-0.448 0.233,-0.655c0.129,-0.253 0.3,-0.485 0.503,-0.685c0.253,-0.249 0.557,-0.447 0.888,-0.577c0.303,-0.119 0.625,-0.18 0.951,-0.184l0.03,0Z" style="fill:url(#_Linear1);"/><defs><linearGradient id="_Linear1" x1="0" y1="0" x2="1" y2="0" gradientUnits="userSpaceOnUse" gradientTransform="matrix(181.427,-0.501085,0.501085,181.427,14.591,46.0541)"><stop offset="0%" style="stop-color:#05edf8;stop-opacity:1"/><stop offset="100%" style="stop-color:#b067fc;stop-opacity:1"/></linearGradient></defs></svg>